<svg xmlns="http://www.w3.org/2000/svg" width="420.363" height="30.166" viewBox="0 0 420.36319 30.16574"><title>Plan de travail 1</title><path d="M311.843 24.348s17.152-11.153 10.7-17.229c-5.108-4.81-10.48 5.59-10.48 5.59s-4.328-11.264-8.41-7.462c-4.085 3.802 8.19 19.1 8.19 19.1zM111.044 23.892s12.086-16.507 3.9-19.903c-6.48-2.687-7.818 8.943-7.818 8.943s-8.04-9-10.51-3.998c-2.472 5 14.428 14.958 14.428 14.958zM211.843 25.857s18.672-17.842 9.25-23.874c-7.46-4.773-11.696 9.384-11.696 9.384s-8-12.963-12.177-7.294c-4.178 5.67 14.623 21.784 14.623 21.784z" fill="none" stroke="#000" stroke-linecap="round" stroke-linejoin="round" stroke-width="2"/><path d="M194.34 14.83s-22.674 15.499-42.641 8.06c-19.97-7.437-4.994-24.75 2.182-20.305 7.178 4.444-11.23 26.851-33.533 15.364M90.526 13.429s-16.443-11.385-33.64 0c-17.197 11.384-4.091 19.574.76 13.88C64.024 19.821 44.056-2.542 1 18M226.022 14.83s22.675 15.499 42.643 8.06c19.968-7.437 4.993-24.75-2.185-20.305-7.175 4.444 11.233 26.851 33.535 15.364M329.837 13.429s16.444-11.385 33.641 0c17.197 11.384 4.09 19.574-.76 13.88-6.38-7.488 13.589-29.851 56.645-9.31" fill="none" stroke="#000" stroke-linecap="round" stroke-linejoin="round" stroke-width="2" stroke-dasharray="5,5"/></svg>