<svg xmlns="http://www.w3.org/2000/svg" viewBox="0 0 75 75"><path d="M61.7 12.1c-6-6-12.3-3.9-16-.3l-8.3 8.3c-.6.6-.6 1.5 0 2.1.6.6 1.5.6 2.1 0l8.3-8.3c5.3-5.3 10.3-1.1 11.7.3 2 2 6.1 7.3.7 12.7L47.5 39.7c-5.6 5.6-10.2 2.2-12 .5-.6-.6-1.5-.6-2.1 0-.6.6-.6 1.5 0 2.1 2 2 4.8 3.5 7.8 3.5 2.6 0 5.5-1.1 8.4-4L62.4 29c6-6 3.5-12.7-.7-16.9z"/><path d="M39.1 52.6L37 50.4l-8.4 8.4c-1.9 1.9-4 2.8-6.2 2.6-1.9-.2-3.9-1.2-5.6-2.9-1.8-1.8-3-3.9-3.3-5.9-.4-2.4.5-4.7 2.6-6.8L28.9 33c5.7-5.7 10.3-2.3 12-.5.6.6 1.5.6 2.1 0 .6-.6.6-1.5 0-2.1-5.8-5.8-12.4-3.3-16.3.5L14 43.8c-2.8 2.8-4 6-3.4 9.4.5 3.3 2.6 6 4.2 7.6 2.2 2.2 4.8 3.5 7.4 3.7h.8c2.8 0 5.4-1.2 7.7-3.5l8.4-8.4z"/></svg>