<svg xmlns="http://www.w3.org/2000/svg" width="66.814" height="51.631" viewBox="0 0 66.81367 51.63079"><title>refresh</title><path d="M10.414 27.723a.843.843 0 0 0 .09-.007.052.052 0 0 1-.09.007zm9.578-6.992a2.582 2.582 0 0 0-3.656-.047l-3.231 3.145a2.925 2.925 0 0 1-.441.43A20.997 20.997 0 0 1 50.37 12.946a2.301 2.301 0 0 0 2.183.883 2.304 2.304 0 0 0 1.485-3.668A25.616 25.616 0 0 0 8.03 24.259a.92.92 0 0 1-.148-.192l-3.446-3.535a2.587 2.587 0 1 0-3.703 3.613L8.41 32.02a2.583 2.583 0 0 0 3.656.047l7.879-7.676a2.593 2.593 0 0 0 .047-3.66zM66.078 27.622l-7.672-7.88a2.583 2.583 0 0 0-3.656-.046l-7.883 7.68a2.587 2.587 0 0 0 3.609 3.707l3.235-3.15a2.66 2.66 0 0 1 .398-.393 21 21 0 0 1-37.7 11.152 2.314 2.314 0 0 0-2.183-.887 2.238 2.238 0 0 0-1.04.442 2.296 2.296 0 0 0-.444 3.222 25.614 25.614 0 0 0 46-14.007 1.23 1.23 0 0 1 .19.23l3.447 3.535a2.583 2.583 0 1 0 3.699-3.605z"/></svg>