<svg xmlns="http://www.w3.org/2000/svg" width="75" height="75" viewBox="0 0 75 75"><title>upload</title><path d="M45.242 41.887a1.468 1.468 0 0 0 2.078-2.075l-8.781-8.781a1.464 1.464 0 0 0-2.074 0l-8.781 8.778a1.468 1.468 0 0 0 2.078 2.074l6.273-6.274v27.813a1.469 1.469 0 1 0 2.938 0V35.613zm21.899-2.836a15.13 15.13 0 0 1-3.957 10.176 14.468 14.468 0 0 1-9.715 4.793c-.035.003-.071.003-.102.003h-9.105a1.468 1.468 0 1 1 0-2.937h9.05a12.127 12.127 0 0 0 1.157-23.953 1.471 1.471 0 0 1-1.215-1.309 14.163 14.163 0 0 0-26.906-4.664 1.466 1.466 0 0 1-1.84.75 6.145 6.145 0 0 0-2.16-.379 6.343 6.343 0 0 0-6.336 6.336 6.271 6.271 0 0 0 .379 2.172 1.468 1.468 0 0 1-.637 1.777 10.028 10.028 0 0 0-4.961 8.629c0 5.469 4.312 10.328 9.426 10.637H30.73a1.469 1.469 0 1 1 0 2.938H20.176a.556.556 0 0 1-.082-.004 12.563 12.563 0 0 1-8.711-4.379 13.899 13.899 0 0 1-3.528-9.192 12.969 12.969 0 0 1 5.442-10.531 9.296 9.296 0 0 1 9.051-11.32 9.201 9.201 0 0 1 1.918.199 17.102 17.102 0 0 1 31.773 5.672 15.104 15.104 0 0 1 11.102 14.586z"/></svg>