<svg viewBox="0 0 100 100" xmlns="http://www.w3.org/2000/svg"><symbol viewBox="0 0 30 30" id="icon-coeur"><title>coeur</title>  <path d="M20.72576,2.8615A7.20105,7.20105,0,0,0,15,5.51755a7.20672,7.20672,0,0,0-5.72724-2.656c-4.881,0-8.16035,4.52217-8.16035,8.74474,0,6.14832,11.8089,14.38829,13.15544,15.30672a1.30117,1.30117,0,0,0,1.46431,0c1.34654-.91843,13.15544-9.15841,13.15544-15.30672C28.8876,7.38367,25.60827,2.8615,20.72576,2.8615Z"/> </symbol><symbol viewBox="0 0 51.38 64.88" id="icon-fleche"><title>fleche</title><path d="M37.51,69.94a4.32,4.32,0,0,0,2.65-1L62,48.34c1.25-1.39,1.77-4.06.32-5.62a4,4,0,0,0-5.62,0L41.36,57.21V8.92a3.85,3.85,0,0,0-7.71,0V57.21L18.32,42.76a4.24,4.24,0,0,0-5.62,0c-1.44,1.52-1,4.28.32,5.62L34.86,68.89A3.73,3.73,0,0,0,37.51,69.94Z" transform="translate(-11.81 -5.06)"/></symbol><symbol viewBox="0 0 75 75" id="icon-fleur"><title>fleur</title> <path d="M55.2,51.4c-1.3-0.2-2.6-0.5-3.7-0.9c1.4-0.3,2.8-0.7,4.1-1.2c1.7-0.7,3.3-1.7,4.7-2.8c3.3,0.5,6.5,1.9,8.5,3.6
	C64.7,52.2,59.5,51.9,55.2,51.4z M44,46c2.8-1.4,5.3-3.6,8.1-5.3c2.3-1.4,7.6-3.9,11.4-3.6c-1.4,1.8-2.1,3.9-3.8,5.5
	c-2,1.9-4.2,3.2-6.8,4C49.5,47.6,47.2,46.9,44,46z M39.8,42c-0.9,1.1-1.6,2.2-2.3,3.3c-0.7-1.1-1.5-2.2-2.3-3.3
	c-1.8-2.2-2.3-4.4-2.2-7.2c0-2.6,0.9-4.8,2.1-7c0.6-1.2,1.6-2.6,2.5-3.6c0.9,1,1.8,2.4,2.5,3.6c1.2,2.2,2.1,4.4,2.1,7
	C42.1,37.7,41.6,39.8,39.8,42z M22.2,46.5c-2.6-0.8-4.9-2.1-6.8-4c-1.7-1.6-2.4-3.7-3.8-5.5c3.8-0.3,9.1,2.2,11.3,3.6
	c2.8,1.7,5.3,3.9,8.1,5.3C27.8,46.9,25.5,47.6,22.2,46.5z M19.8,51.4c-4.2,0.5-9.5,0.8-13.6-1.3c2-1.7,5.1-3.1,8.5-3.6
	c1.4,1.1,3,2.1,4.7,2.8c1.3,0.5,2.7,1,4.1,1.2C22.3,50.9,21.1,51.2,19.8,51.4z M23,26.7c1.8,1.4,4.5,3.7,5.1,4.4
	c-0.2,0.8-0.3,1.6-0.4,2.4c-0.1,1.6-0.1,3.3,0.2,5c-1.3-1-2.6-1.9-4.1-2.6c-0.2-0.1-0.4-0.2-0.7-0.3C21.2,32.8,22.6,28.6,23,26.7z
	 M52,26.7c0.4,1.9,1.8,6-0.1,8.7c-0.2,0.1-0.5,0.2-0.7,0.3c-1.5,0.8-2.8,1.7-4.1,2.6c0.3-1.6,0.3-3.3,0.2-5
	c-0.1-0.8-0.2-1.6-0.4-2.4C47.4,30.4,50.1,28.2,52,26.7z M62.7,44.1c3.2-3.4,3.3-8.6,3.3-8.6s-7-1.9-10.3-1.2
	c0.7-6.7-3.2-10.5-3.2-10.5s-3.2,1.3-6.6,4.6c-1.3-3.1-6.6-8.9-8.5-8.9c-1.9,0-7.2,5.9-8.4,8.9c-3.4-3.3-6.6-4.6-6.6-4.6
	s-3.9,3.8-3.2,10.5C15.9,33.6,9,35.5,9,35.5s0.1,5.1,3.3,8.6c-6.2,1.6-8.2,5.8-8.1,6c2.6,4.7,8.2,5.3,13,5.4
	c3.4,0.1,6.7-0.4,9.8-1.8c2.6-1.1,7.2-3.7,10.5-3.7c3.3,0,7.9,2.6,10.5,3.7c3.1,1.4,6.4,1.9,9.8,1.8c4.9-0.1,10.4-0.7,13.1-5.4
	C70.9,49.8,68.9,45.6,62.7,44.1z"/> </symbol><symbol viewBox="0 0 75 75" id="icon-lien"><title>lien</title> <path d="M61.7,12.1c-6-6-12.3-3.9-16-0.3l-8.3,8.3c-0.6,0.6-0.6,1.5,0,2.1c0.6,0.6,1.5,0.6,2.1,0l8.3-8.3c5.3-5.3,10.3-1.1,11.7,0.3
	c2,2,6.1,7.3,0.7,12.7L47.5,39.7c-5.6,5.6-10.2,2.2-12,0.5c-0.6-0.6-1.5-0.6-2.1,0c-0.6,0.6-0.6,1.5,0,2.1c2,2,4.8,3.5,7.8,3.5
	c2.6,0,5.5-1.1,8.4-4L62.4,29C68.4,23,65.9,16.3,61.7,12.1z"/> <path d="M39.1,52.6L37,50.4l-8.4,8.4c-1.9,1.9-4,2.8-6.2,2.6c-1.9-0.2-3.9-1.2-5.6-2.9c-1.8-1.8-3-3.9-3.3-5.9
	c-0.4-2.4,0.5-4.7,2.6-6.8l12.8-12.8c5.7-5.7,10.3-2.3,12-0.5c0.6,0.6,1.5,0.6,2.1,0c0.6-0.6,0.6-1.5,0-2.1
	c-5.8-5.8-12.4-3.3-16.3,0.5L14,43.8c-2.8,2.8-4,6-3.4,9.4c0.5,3.3,2.6,6,4.2,7.6c2.2,2.2,4.8,3.5,7.4,3.7c0.3,0,0.6,0,0.8,0
	c2.8,0,5.4-1.2,7.7-3.5L39.1,52.6z"/> </symbol><symbol viewBox="0 0 75 75" id="icon-mail"><title>mail</title> <path d="M72,58L49.5,36.8L72,17.6V58z M6,59.2l21.8-20.5l9.7,8.2l9.7-8.2L69,59.2H6z M3,17.6l22.5,19.2L3,58V17.6z M69.5,15.8
	L37.5,43l-32-27.3H69.5z M0,12.8v49.5h75V12.8H0z"/> </symbol><symbol viewBox="0 0 75 75" id="icon-marker"><title>marker</title> <style type="text/css"> .st0{fill-rule:evenodd;clip-rule:evenodd;} </style> <path class="st0" d="M37.5,75c0,0,28.1-25.6,28.1-49.2C65.6,11.5,53,0,37.5,0S9.4,11.5,9.4,25.8C9.4,49.4,37.5,75,37.5,75z"/> </symbol><symbol viewBox="0 0 66.81367 51.63079" id="icon-refresh"><title>refresh</title><path d="M14.508,39.402a.84323.84323,0,0,0,.09-.007A.05156.05156,0,0,1,14.508,39.402Zm9.578-6.992a2.58191,2.58191,0,0,0-3.656-.047l-3.231,3.145a2.92456,2.92456,0,0,1-.441.43A20.99729,20.99729,0,0,1,54.465,24.625a2.30123,2.30123,0,0,0,2.183.883,2.30378,2.30378,0,0,0,1.485-3.668A25.61638,25.61638,0,0,0,12.125,35.938a.91971.91971,0,0,1-.148-.192L8.531,32.211a2.58679,2.58679,0,1,0-3.703,3.613l7.676,7.875a2.58332,2.58332,0,0,0,3.656.047l7.879-7.676A2.59307,2.59307,0,0,0,24.086,32.41Z" transform="translate(-4.09417 -11.67908)"/><path d="M70.172,39.301,62.5,31.422a2.58331,2.58331,0,0,0-3.656-.047l-7.883,7.68a2.58683,2.58683,0,0,0,3.609,3.707l3.235-3.149a2.6607,2.6607,0,0,1,.398-.394A20.99946,20.99946,0,0,1,20.504,50.371a2.31419,2.31419,0,0,0-2.184-.887,2.23761,2.23761,0,0,0-1.039.442,2.29636,2.29636,0,0,0-.445,3.222,25.61368,25.61368,0,0,0,46-14.007,1.23065,1.23065,0,0,1,.191.23l3.446,3.535a2.58257,2.58257,0,1,0,3.699-3.605Z" transform="translate(-4.09417 -11.67908)"/></symbol><symbol viewBox="0 0 31.1 31.1" id="icon-search"><title>search</title> <style type="text/css"> .st0{fill-rule:evenodd;clip-rule:evenodd;} </style> <path class="st0" d="M13.5,25.5c6.6,0,12-5.4,12-12s-5.4-12-12-12s-12,5.4-12,12S6.9,25.5,13.5,25.5z M22.5,23.6
	c-2.4,2.1-5.5,3.4-9,3.4C6,27,0,21,0,13.5S6,0,13.5,0S27,6,27,13.5c0,3.5-1.3,6.6-3.4,9l7.3,7.3c0.3,0.3,0.3,0.8,0,1.1
	c-0.3,0.3-0.8,0.3-1.1,0L22.5,23.6z"/> </symbol><symbol viewBox="0 0 33.50087 67.5" id="icon-telephone"><title>telephone</title><path d="M52.793,63.348H22.207V9.613H52.789V63.348ZM37.5,6.324a.7305.7305,0,1,1-.73.731A.73171.73171,0,0,1,37.5,6.324ZM54.25,7.531A2.42333,2.42333,0,0,0,52.246,4.77C47.719,3.816,37.5,3.75,37.5,3.75s-10.219.066-14.746,1.02A2.42163,2.42163,0,0,0,20.75,7.531V67.469a2.4251,2.4251,0,0,0,2.004,2.761c4.527.954,14.746,1.02,14.746,1.02s10.219-.066,14.746-1.02a2.42162,2.42162,0,0,0,2.004-2.761Z" transform="translate(-20.74956 -3.75)"/></symbol><symbol viewBox="0 0 59.852 44.102" id="icon-tick"><title>tick</title><polygon points="22.051 44.102 0 22.051 6.301 15.75 22.051 31.5 53.551 0 59.852 6.301 22.051 44.102"/></symbol><symbol viewBox="0 0 75 75" id="icon-upload-01"><title>upload</title>  <path d="M45.242,41.887a1.46831,1.46831,0,0,0,2.078-2.075l-8.781-8.781a1.46423,1.46423,0,0,0-2.074,0l-8.781,8.778a1.468,1.468,0,0,0,2.078,2.074l6.273-6.274V63.422a1.469,1.469,0,1,0,2.938,0V35.613Zm21.899-2.836a15.13083,15.13083,0,0,1-3.957,10.176,14.46753,14.46753,0,0,1-9.715,4.793c-.035.003-.071.003-.102.003H44.262a1.4685,1.4685,0,1,1,0-2.937h9.05a12.12664,12.12664,0,0,0,1.157-23.953,1.47131,1.47131,0,0,1-1.215-1.309A14.16342,14.16342,0,0,0,26.348,21.16a1.46628,1.46628,0,0,1-1.84.75,6.14481,6.14481,0,0,0-2.16-.379,6.34277,6.34277,0,0,0-6.336,6.336,6.27119,6.27119,0,0,0,.379,2.172,1.46771,1.46771,0,0,1-.637,1.777,10.02767,10.02767,0,0,0-4.961,8.629c0,5.469,4.312,10.328,9.426,10.637H30.73a1.469,1.469,0,1,1,0,2.938H20.176a.55634.55634,0,0,1-.082-.004,12.56255,12.56255,0,0,1-8.711-4.379,13.89882,13.89882,0,0,1-3.528-9.192,12.96851,12.96851,0,0,1,5.442-10.531,9.296,9.296,0,0,1,9.051-11.32,9.201,9.201,0,0,1,1.918.199,17.10156,17.10156,0,0,1,31.773,5.672A15.1041,15.1041,0,0,1,67.141,39.051Z"/> </symbol></svg>