<svg xmlns="http://www.w3.org/2000/svg" width="541.95272" height="346.51676" viewBox="0 0 541.95272 346.51676"><title>logo_bonjourAmour</title><path d="M91.94887,343.39323c0,1.15088-.82227,1.97266-2.959,1.97266-2.4668,0-3.45312-.98633-4.27344-3.123L73.20864,311.99625H21.5934L9.75746,342.24284c-.82227,2.13672-1.80859,3.123-4.10938,3.123-2.13867,0-2.959-.82178-2.959-1.97266a17.23632,17.23632,0,0,1,.65625-2.79443L43.29067,240.654c.98633-2.79443,2.30078-3.94531,4.76758-3.94531,2.13672,0,3.45117,1.15088,4.4375,3.94531l38.79492,99.94482A17.24438,17.24438,0,0,1,91.94887,343.39323Zm-21.041-37.31494L47.73012,245.58561,23.89418,306.07829Z" style="fill:#fff889"/><path d="M168.88051,323.00993c-1.15039,2.63037-2.30078,3.78076-4.27344,3.78076-2.13672,0-3.28711-1.15039-4.43945-3.78076l-37.9707-77.0957-7.23437,96.32861c-.16406,2.13672-1.15039,3.123-3.28711,3.123s-3.28711-.98633-3.123-3.123l8.05469-100.7666c.16406-3.12354,1.47852-4.76758,4.4375-4.76758,2.4668,0,4.10938,1.31543,5.26172,4.10986L164.77114,318.736l38.13672-77.91748c1.15039-2.63037,2.63086-4.10986,5.42383-4.10986,2.959,0,4.27539,1.644,4.43945,4.76758l7.89063,100.7666c.16406,2.13672-.82227,3.123-2.959,3.123s-3.28711-.98633-3.45312-3.123l-7.56055-96.32861Z" style="fill:#fff889"/><path d="M290.361,235.72282c30.41211,0,50.4668,22.19141,50.4668,55.397,0,33.20508-20.05469,55.397-50.4668,55.397-30.57422,0-50.46484-22.19189-50.46484-55.397C239.89614,257.91422,259.78676,235.72282,290.361,235.72282Zm0,104.876c26.13672,0,43.23242-19.89014,43.23242-49.479S316.4977,241.6403,290.361,241.6403c-26.30078,0-43.39648,19.89063-43.39648,49.47949S264.0602,340.59879,290.361,340.59879Z" style="fill:#fff889"/><path d="M432.7184,322.0236q2.959-7.64355,2.959-18.73975V239.99674c0-2.13721.98633-3.12354,3.123-3.12354s3.28711.98633,3.28711,3.12354v63.123c0,8.71191-1.15039,16.10938-3.45117,21.86279-6.082,15.123-19.39844,21.53418-36.16406,21.53418-16.76758,0-30.24609-6.41113-36.33008-21.53418-2.30078-5.75342-3.45117-13.15088-3.45117-21.86279v-63.123c0-2.13721.98633-3.12354,3.123-3.12354,2.30078,0,3.45313.98633,3.45313,3.12354v63.28711q0,11.09619,2.959,18.73975c5.0957,12.65771,15.61523,18.5752,30.24609,18.5752C417.10121,340.59879,427.78676,334.68131,432.7184,322.0236Z" style="fill:#fff889"/><path d="M458.94887,5.76359C435.8204-5.64386,395.1776-1.31555,391.14159,29.59819a37.2957,37.2957,0,0,0,14.194,34.08539c5.81315,4.37906,11.64586,4.28462,12.10254,12.20623.50745,8.80219-2.1956,17.77748-1.60547,26.74976,5.40852-8.79673,6.70762-26.13983,17.79826-29.26949,11.574-3.26606,21.71967-1.00285,31.85925-9.44872C484.94794,47.71379,481.31652,16.79618,458.94887,5.76359Zm2.18262,35.76123c-5.52944,7.77577-16.555,12.34252-25.50716,14.60186-7.1378,1.80142-8.748-.34334-13.04469-6.01187a67.22447,67.22447,0,0,1-7.92653-12.824c-3.60037-7.9803-4.89659-17.81266,4.10815-22.80988,10.97854-6.0926,16.10112,7.593,19.86241,15.341,5.355-3.13835,12.15543-8.79242,18.68637-5.76076C463.66913,27.01305,464.9804,36.11378,461.13149,41.52482Z" style="fill:#fdfdfd"/><path d="M304.65837,224.24525l6.32836-2.02527a2.80318,2.80318,0,0,1,2.04136.13031l11.69936,5.46821a2.80318,2.80318,0,0,1,1.39957,1.45884l2.5978,6.2178a2.80318,2.80318,0,0,1-1.19115,3.51186l-12.88895,7.39744a2.80318,2.80318,0,0,1-2.5823.10827l-5.14062-2.4027a2.80318,2.80318,0,0,1-1.57327-2.05057L302.75257,227.404A2.80318,2.80318,0,0,1,304.65837,224.24525Z" style="fill:#fff889"/><path d="M537.26528,343.55778c0,1.15088-1.15039,1.80811-3.123,1.80811-2.79492,0-3.78125-1.15039-5.25977-3.2876l-29.26172-40.93115a82.94146,82.94146,0,0,1-13.31445.98633c-2.13672,0-7.23242-.16455-10.02734-.49316v40.60254c0,2.13672-.98633,3.123-3.123,3.123-2.30078,0-3.45117-.98633-3.45117-3.123V243.613c0-3.123,0-4.76709,4.76563-5.75342a81.495,81.495,0,0,1,15.28906-1.31494c23.834,0,40.92969,10.68457,40.92969,32.3833,0,15.2876-8.38281,25.97266-24.32812,30.73975l29.0957,40.438C536.77114,341.91374,537.26528,342.736,537.26528,343.55778Zm-50.79492-47.34229c24.98633,0,37.15039-10.02734,37.15039-27.123,0-18.41113-13.80664-26.63037-34.02734-26.63037a75.44023,75.44023,0,0,0-13.31445,1.15088v52.10938C479.56606,296.05094,483.34731,296.21549,486.47036,296.21549Z" style="fill:#fff889"/><path d="M539.40043,146.00575c-4.4496-3.02273-9.47145,29.614-10.57166,33.48126-1.81025,6.36309-9.02235,35.628-20.27259,31.12616-15.55107-6.22278,4.3212-46.12752-1.0378-57.51337-5.36068-11.38942-14.18449-1.442-23.456-1.0321-23.42819,1.03571-4.22966-13.98606-6.44042-25.10155-2.69914-13.571-16.24338-9.32941-20.21082,1.23712-3.21327,8.55794,1.84,12.797,3.0145,20.32174,1.33712,8.56627-1.69387,18.29178-4.61424,26.9387-5.41094,16.02126-20.29026,40.34784-24.282,9.08054-.62187-4.871,4.0832-61.62307-14.93358-47.78263-2.78221,2.0249-2.82723,55.814-19.73522,44.32322-2.86765-1.94887-.862-16.91355-.74149-19.313.56109-11.16983,9.34052-34.82495-2.31269-41.49458-16.95682-9.70513-13.3225,18.40571-16.4431,25.98568-3.2404,7.871-15.44749,18.12762-24.71875,12.02209,4.37009-12.89316,2.32934-34.79911-12.40791-40.45149-10.36944-3.97714-22.37486,2.08211-21.27373,14.293-12.51375-2.20244-15.31736,22.26544-18.50784,29.14324-4.32308,9.31935-10.09588,15.91918-16.58249,23.681-1.82809-14.55774-.50681-33.80739-5.08868-47.51267C274.433,124.42382,259.54111,114.63,260.1132,135.12c.54747,19.60827-3.30613,37.87392-10.582,56.49808-1.64236,4.204-5.33069,17.25316-11.00047,18.35315-13.70847,2.65957-7.801-31.456-7.045-37.47381,1.58734-12.63512,10.22825-51.646-14.45053-49.45621-14.06807,1.24831-23.3584,27.13674-26.94924,37.8058-.03894-6.71591,3.14167-46.95095-13.79395-30.4624-6.1302,5.96837-.31312,18.21441-8.3847,25.02528-3.7369,3.15323-14.53122,7.25988-19.44343,4.02477,4.37-12.893,2.3294-34.799-12.40756-40.45162-10.36937-3.97733-22.37524,2.082-21.27409,14.29292-5.958-1.04858-10.83984,5.01758-13.39941,14.22266C93.5435,149.06777,70.587,153.286,70.587,153.286c-3.626-5.66821-13.97363-8.90356-13.97363-8.90356,17.48884-9.89332,29.75749-32.80652,18.47361-51.64423C61.244,69.62833,30.82575,79.23563,11.46021,88.70437c-11.798,5.76859-17.02973,12.59643-3.181,6.65907C19.12166,90.71494,28.65552,84.53956,40.88,83.65865c11.10409-.80018,22.57754,2.73905,25.08776,14.97893,4.04806,19.73836-18.63117,31.44672-33.80655,36.60084,1.76676-5.6341,7.17044-13.799,6.34646-19.78864-.70969-5.15885-8.50153-16.45062-13.575-14.27875-4.99581,2.13865-7.49719,26.59941-8.26229,31.38147a256.40954,256.40954,0,0,0-3.02775,41.212c-7.99835,4.778-6.709,18.96711-4.08212,26.12846,4.85409,13.233,17.55624,20.78292,31.464,20.7773,34.68218-.014,51.44849-32.69535,35.73145-61.87988,6.22559-1.62451,14.81543-4.00464,23.457-5.915-2.14233,13.19407-.73349,37.82854,16.03315,40.92709,16.8866,3.12072,27.1182-15.856,30.60064-28.96933,1.54736.229,16.01611,1.88379,25.98-6.83691-.05328,4.26565,2.097,39.93472,17.14931,27.00795,3.69762-3.17547.80145-9.708,1.6139-13.80578,1.12416-5.67,4.50378-11.76528,6.86082-16.96672,2.99913-6.61838,12.60986-29.96818,19.30353-23.61253,3.90572,3.70849-3.82656,27.65142-4.2962,33.53968-1.046,13.11382-1.51163,53.13331,16.28845,57.01788,21.89173,4.7775,31.2284-47.08549,33.71937-58.68145,1.42907,12.39423,4.71188,24.91925.50272,36.54428-3.3416,9.229-9.4474,17.45423-12.73324,26.86084-4.43273,12.68988-11.03756,41.19349,7.8067,45.93125,17.45343,4.38809,24.03148-18.88409,26.30417-31.74541,1.93626-10.95748,1.73205-22.15883.97468-33.21883-.61631-9.00011-2.02468-11.77,1.90645-18.87414,4.1239-7.45253,11.58683-12.9219,15.62962-20.91084,3.18925,38.51633,39.3143,26.18371,47.17041-3.39893,1.65137.24438,16.44092,3.4209,25.85938-7.04126-.1932,11.01032-.44255,29.13037,12.43469,33.01194,11.754,3.543,22.03533-8.311,26.27234-17.6511,1.611,12.33933,2.37594,36.24614,20.17009,35.30085,20.48536-1.08826,27.36314-36.84751,30.221-51.211,5.46436,3.95313,14.38135,6.16992,24.08643,2.91553-4.94229,17.67-8.45557,81.82981,27.534,55.3958C527.91,206.83558,549.302,151.70923,539.40043,146.00575Zm-509.708,2.72c-.038-6.66428,34.59943,5.38032,35.66211,5.93726-1.19727.00659-24.36328,6.874-37.36621,10.6897C29.15336,159.50746,28.52055,153.52284,29.69243,148.72572Zm41.15918,24.91895c-3.484,22.5297-33.54352,58.08581-53.91592,28.47-19.24678-27.97948,35.584-36.71638,51.44034-42.678C71.08989,162.715,70.85161,173.64467,70.85161,173.64467ZM126.751,185.007c-8.05981-2.09226-7.79339-18.40037-7.9031-24.56135-.14775-8.29711-2.51032-16.99274-2.55393-24.633,6.97168,15.08105,20.21,26.68359,26.2041,27.69775C137.77836,176.11244,132.2852,184.07753,126.751,185.007Zm17.35645-28.24243c-7.42959-3.41594-32.155-35.19952-12.24758-34.39627C145.5566,122.92093,145.58853,149.00375,144.10746,156.76454ZM259.65629,265.99867c-20.95312-13.05908,8.03613-63.32349,8.03613-63.32349C268.51371,209.21083,275.37065,275.79262,259.65629,265.99867Zm71.27441-82.14136c-8.05926-2.09233-7.79252-18.40068-7.90217-24.56124-.14768-8.29722-2.51027-16.99275-2.55388-24.6331,6.97168,15.08105,20.21,26.68384,26.2041,27.69775C341.959,174.96278,336.46489,182.92812,330.93071,183.85732Zm17.35742-28.24243c-7.42989-3.41587-32.1549-35.19952-12.24758-34.3962C349.73713,121.77139,349.7692,147.85416,348.28813,155.61488Zm116.44434-30.14746c10.373-12.30432,1.46575,15.43592,1.28613,15.86157A15.96224,15.96224,0,0,1,464.73246,125.46742Z" style="fill:#fff"/><path d="M261.26616,111.89833c10.22412,1.92369,19.77088-8.92516,9.48025-16.04112C259.066,87.78025,253.326,103.9156,261.26616,111.89833Z" style="fill:#fff"/><path d="M290.361,235.72281c-.52637,0-1.0415.02246-1.56152.03564a5.55749,5.55749,0,0,1,.18311,5.91455c.459-.01221.91406-.03271,1.37842-.03271,26.13672,0,43.23242,19.89063,43.23242,49.47949s-17.0957,49.479-43.23242,49.479c-26.30078,0-43.39648-19.89014-43.39648-49.479,0-19.75757,7.63037-35.17969,20.52637-43.25439-.01416-.05054-.0332-.09595-.0459-.14771a45.70815,45.70815,0,0,1-1.17529-6.439c-16.50488,8.55884-26.37354,26.46338-26.37354,49.84106,0,33.20508,19.89063,55.397,50.46484,55.397,30.41211,0,50.4668-22.19189,50.4668-55.397C340.82781,257.91421,320.77312,235.72281,290.361,235.72281Z" style="fill:#fff889"/></svg>