<?xml version="1.0" encoding="utf-8"?>
<!-- Generator: Adobe Illustrator 21.0.0, SVG Export Plug-In . SVG Version: 6.00 Build 0)  -->
<svg version="1.1" id="Calque_1" xmlns="http://www.w3.org/2000/svg" xmlns:xlink="http://www.w3.org/1999/xlink" x="0px" y="0px"
	 viewBox="0 0 188.8 222" style="enable-background:new 0 0 188.8 222;" xml:space="preserve">
<style type="text/css">
	.st0{fill:#FDFDFD;}
</style>
<path class="st0" d="M147.3,12.5C97.3-12.2,9.4-2.8,0.6,64C-3,91.8,9,120.9,31.3,137.7c12.6,9.5,25.2,9.3,26.2,26.4
	c1.1,19-4.7,38.5-3.5,57.9c11.7-19,14.5-56.5,38.5-63.3c25-7.1,47-2.2,68.9-20.4C203.5,103.2,195.7,36.3,147.3,12.5z M152,89.8
	c-12,16.8-35.8,26.7-55.2,31.6c-15.4,3.9-18.9-0.7-28.2-13C62.1,99.7,56,90.6,51.5,80.7c-7.8-17.3-10.6-38.5,8.9-49.3
	c23.7-13.2,34.8,16.4,43,33.2c11.6-6.8,26.3-19,40.4-12.5C157.5,58.4,160.3,78.1,152,89.8z"/>
</svg>
